<svg width="20" height="20" viewBox="0 0 20 20" fill="none" xmlns="http://www.w3.org/2000/svg">
<path opacity="0.4" d="M13.9919 1.40635C15.1503 0.248014 17.0283 0.248014 18.1866 1.40635C19.345 2.56468 19.345 4.44271 18.1866 5.60105L5.60251 18.1852C4.44418 19.3435 2.56615 19.3435 1.40781 18.1852C0.249479 17.0268 0.249479 15.1488 1.40781 13.9905L13.9919 1.40635Z" fill="#7D7D7D"/>
<path d="M18.1866 13.9905C19.3449 15.1488 19.3449 17.0268 18.1866 18.1852C17.0283 19.3435 15.1502 19.3435 13.9919 18.1852L1.40781 5.60105C0.249479 4.44271 0.249479 2.56468 1.40781 1.40635C2.56615 0.248014 4.44418 0.248014 5.60251 1.40635L18.1866 13.9905Z" fill="#7D7D7D"/>
</svg>
